<svg width="246" height="300" viewBox="0 0 246 300" fill="none" xmlns="http://www.w3.org/2000/svg">
<circle cx="122.961" cy="115.961" r="82.4606" stroke="#F2889C" stroke-width="5"/>
<path d="M57.3804 222.143V212.682H67.207V215.002C66.7513 214.904 66.2874 214.839 65.8154 214.806C65.3434 214.774 64.8511 214.758 64.3384 214.758H59.6387V219.274C59.8258 219.25 60.0944 219.225 60.4443 219.201C60.8024 219.168 61.2052 219.152 61.6528 219.152C62.8247 219.152 63.8826 219.388 64.8267 219.86C65.7788 220.332 66.5356 220.987 67.0972 221.825C67.6587 222.656 67.9395 223.616 67.9395 224.706C67.9395 225.976 67.6506 227.066 67.0728 227.978C66.5031 228.889 65.7218 229.589 64.729 230.077C63.7362 230.566 62.6009 230.81 61.3232 230.81C60.3792 230.81 59.5451 230.712 58.8208 230.517C58.0965 230.33 57.3519 230 56.5869 229.528L56.9531 226.965C57.7751 227.624 58.5197 228.063 59.187 228.283C59.8543 228.503 60.6152 228.613 61.4697 228.613C62.6904 228.613 63.6873 228.279 64.4604 227.612C65.2336 226.944 65.6201 225.996 65.6201 224.767C65.6201 223.945 65.3882 223.286 64.9243 222.79C64.4686 222.285 63.8989 221.919 63.2153 221.691C62.5399 221.463 61.8766 221.349 61.2256 221.349C60.5827 221.349 59.9683 221.41 59.3823 221.532C58.8045 221.646 58.1372 221.85 57.3804 222.143ZM86.25 230.505H84.1748L79.9023 218.053H81.7944L85.2124 228.063L88.6304 218.053H90.5225L86.25 230.505ZM92.4146 230.505H90.3394L89.9731 219.64L89.668 218.053H91.6821C91.6821 218.053 91.6943 218.318 91.7188 218.847C91.7432 219.368 91.7757 220.051 91.8164 220.898C91.8571 221.744 91.9019 222.66 91.9507 223.644C91.9995 224.629 92.0524 225.593 92.1094 226.537C92.1663 227.481 92.2192 228.307 92.2681 229.015C92.325 229.723 92.3739 230.22 92.4146 230.505ZM80.1465 230.505H78.0713C78.112 230.22 78.1527 229.723 78.1934 229.015C78.234 228.307 78.2788 227.481 78.3276 226.537C78.3765 225.593 78.4212 224.629 78.4619 223.644C78.5026 222.66 78.5392 221.744 78.5718 220.898C78.6043 220.051 78.6287 219.368 78.645 218.847C78.6694 218.318 78.6816 218.053 78.6816 218.053H80.6958L80.4517 219.64L80.1465 230.505ZM96.0889 218.053H98.2251V227.05L105 218.639V218.053H107.014V226.781C107.014 227.62 107.018 228.364 107.026 229.015C107.043 229.666 107.079 230.163 107.136 230.505H105V221.557L98.2251 229.919V230.505H96.2109V221.777C96.2109 220.93 96.2069 220.186 96.1987 219.543C96.1906 218.892 96.154 218.395 96.0889 218.053ZM111.238 230.505V224.035C111.238 222.847 111.226 221.716 111.201 220.641C111.185 219.559 111.136 218.696 111.055 218.053H113.496V222.936H119.6V218.053H121.858V224.523C121.858 225.711 121.866 226.847 121.882 227.929C121.907 229.003 121.96 229.862 122.041 230.505H119.6V224.706H113.496V230.505H111.238ZM134.81 222.375L129.304 236.486H126.741C127.196 235.607 127.656 234.651 128.12 233.617C128.584 232.584 128.983 231.611 129.316 230.7L134.004 218.053H136.567C136.16 218.997 135.819 219.815 135.542 220.507C135.273 221.191 135.029 221.813 134.81 222.375ZM131.44 229.772L130.281 232.519L126.191 222.387C125.972 221.834 125.703 221.211 125.386 220.519C125.076 219.828 124.694 219.006 124.238 218.053H126.802L131.44 229.772ZM149.019 218.053V219.823H144.441V230.505H142.183V219.823H137.605V218.053H149.019ZM157.698 224.34C157.698 222.94 157.966 221.756 158.503 220.788C159.049 219.811 159.769 219.071 160.664 218.566C161.567 218.062 162.552 217.809 163.618 217.809C164.741 217.809 165.726 218.062 166.572 218.566C167.427 219.071 168.094 219.811 168.574 220.788C169.054 221.756 169.294 222.94 169.294 224.34C169.294 225.74 169.022 226.92 168.477 227.88C167.939 228.84 167.223 229.569 166.328 230.065C165.433 230.562 164.448 230.81 163.374 230.81C162.259 230.81 161.274 230.562 160.42 230.065C159.565 229.569 158.898 228.84 158.418 227.88C157.938 226.92 157.698 225.74 157.698 224.34ZM159.956 224.34C159.956 225.764 160.282 226.875 160.933 227.673C161.592 228.462 162.446 228.857 163.496 228.857C164.481 228.857 165.315 228.462 165.999 227.673C166.69 226.875 167.036 225.764 167.036 224.34C167.036 222.908 166.707 221.789 166.047 220.983C165.396 220.169 164.546 219.762 163.496 219.762C162.511 219.762 161.673 220.169 160.981 220.983C160.298 221.789 159.956 222.908 159.956 224.34ZM182.661 218.053V219.823H178.083V230.505H175.825V219.823H171.248V218.053H182.661Z" fill="#F2889C"/>
<path d="M29.209 256.505H17.5635V248.741C17.5635 247.315 17.5488 245.958 17.5195 244.669C17.5 243.37 17.4414 242.335 17.3438 241.563H20.2734V254.381H26.7188V241.563H29.6484C29.5508 242.335 29.4873 243.37 29.458 244.669C29.4385 245.958 29.4287 247.315 29.4287 248.741V254.381H31.7725V262.95H29.6484C29.6484 262.325 29.6338 261.627 29.6045 260.855C29.585 260.094 29.5459 259.327 29.4873 258.555C29.4287 257.794 29.3359 257.11 29.209 256.505ZM47.0068 249.4H36.6211C36.6699 251.109 37.1289 252.379 37.998 253.209C38.877 254.039 39.9805 254.454 41.3086 254.454C42.2559 254.454 43.1836 254.346 44.0918 254.132C45.0098 253.907 45.9131 253.526 46.8018 252.989L47.0947 255.406C46.0596 255.943 45.0586 256.319 44.0918 256.534C43.125 256.759 42.0752 256.871 40.9424 256.871C39.7021 256.871 38.5449 256.583 37.4707 256.007C36.4062 255.43 35.5469 254.576 34.8926 253.443C34.2383 252.31 33.9111 250.914 33.9111 249.254C33.9111 247.633 34.1943 246.226 34.7607 245.035C35.3369 243.844 36.1475 242.921 37.1924 242.266C38.2471 241.602 39.4971 241.27 40.9424 241.27C42.1533 241.27 43.1494 241.475 43.9307 241.885C44.7217 242.296 45.3418 242.843 45.791 243.526C46.2402 244.21 46.5576 244.967 46.7432 245.797C46.9287 246.617 47.0215 247.437 47.0215 248.258C47.0215 248.385 47.0215 248.575 47.0215 248.829C47.0215 249.073 47.0166 249.263 47.0068 249.4ZM36.7383 247.349H44.3848C44.3848 246.09 44.0381 245.128 43.3447 244.464C42.6611 243.8 41.7871 243.468 40.7227 243.468C39.6582 243.468 38.7793 243.785 38.0859 244.42C37.4023 245.045 36.9531 246.021 36.7383 247.349ZM51.1377 256.505V248.741C51.1377 247.315 51.123 245.958 51.0938 244.669C51.0742 243.37 51.0156 242.335 50.918 241.563H53.8477V247.423H61.1719V241.563H63.8818V249.327C63.8818 250.753 63.8916 252.115 63.9111 253.414C63.9404 254.703 64.0039 255.733 64.1016 256.505H61.1719V249.547H53.8477V256.505H51.1377ZM81.0938 241.563V243.687H75.6006V256.505H72.8906V243.687H67.3975V241.563H81.0938ZM84.3311 263.682V249.4C84.3311 247.574 84.292 246.021 84.2139 244.742C84.1357 243.453 83.9307 242.393 83.5986 241.563H86.2354C86.3428 241.807 86.4502 242.164 86.5576 242.633C86.665 243.101 86.7529 243.673 86.8213 244.346C87.5146 243.438 88.3203 242.701 89.2383 242.135C90.1562 241.558 91.1572 241.27 92.2412 241.27C93.3545 241.27 94.3262 241.588 95.1562 242.222C95.9961 242.857 96.6455 243.731 97.1045 244.844C97.5732 245.958 97.8076 247.232 97.8076 248.668C97.8076 250.338 97.5049 251.788 96.8994 253.018C96.3037 254.239 95.5029 255.186 94.4971 255.86C93.4912 256.534 92.373 256.871 91.1426 256.871C90.3613 256.871 89.6533 256.724 89.0186 256.431C88.3936 256.138 87.7344 255.748 87.041 255.26V258.702C87.041 259.874 87.0703 260.841 87.1289 261.602C87.1875 262.364 87.2803 263.057 87.4072 263.682H84.3311ZM87.041 248.082V252.696C87.7148 253.165 88.2715 253.526 88.7109 253.78C89.1504 254.034 89.5508 254.21 89.9121 254.307C90.2832 254.405 90.6934 254.454 91.1426 254.454C91.8359 254.454 92.4805 254.239 93.0762 253.809C93.6816 253.38 94.1699 252.764 94.541 251.964C94.9121 251.163 95.0977 250.211 95.0977 249.107C95.0977 247.476 94.7998 246.177 94.2041 245.211C93.6084 244.244 92.7832 243.76 91.7285 243.76C90.8887 243.76 90.0342 244.127 89.165 244.859C88.2959 245.592 87.5879 246.666 87.041 248.082ZM114.653 256.505H112.09C111.953 256.192 111.831 255.738 111.724 255.142C111.626 254.537 111.553 253.917 111.504 253.282C111.455 252.637 111.431 252.1 111.431 251.671V250.499C111.05 251.505 110.562 252.501 109.966 253.487C109.37 254.464 108.672 255.274 107.871 255.919C107.07 256.553 106.157 256.871 105.132 256.871C103.901 256.871 102.861 256.329 102.012 255.245C101.162 254.151 100.737 252.569 100.737 250.499C100.737 249.337 100.894 248.209 101.206 247.115C101.519 246.011 101.997 245.02 102.642 244.141C103.286 243.262 104.106 242.564 105.103 242.047C106.099 241.529 107.28 241.27 108.647 241.27C109.595 241.27 110.488 241.334 111.328 241.461C112.168 241.578 112.959 241.734 113.701 241.929V248.741C113.701 250.587 113.789 252.139 113.965 253.399C114.141 254.649 114.37 255.684 114.653 256.505ZM110.991 245.738V243.878C110.747 243.829 110.439 243.775 110.068 243.717C109.707 243.648 109.16 243.614 108.428 243.614C107.158 243.614 106.157 243.946 105.425 244.61C104.702 245.264 104.189 246.114 103.887 247.159C103.594 248.204 103.447 249.317 103.447 250.499C103.447 251.632 103.657 252.564 104.077 253.297C104.497 254.019 104.995 254.381 105.571 254.381C106.089 254.381 106.606 254.156 107.124 253.707C107.642 253.248 108.13 252.662 108.589 251.949C109.058 251.226 109.468 250.469 109.819 249.678C110.181 248.878 110.464 248.126 110.669 247.423C110.884 246.719 110.991 246.158 110.991 245.738ZM129.155 256.505H126.299C126.377 256.094 126.421 255.499 126.431 254.718C126.44 253.936 126.445 253.043 126.445 252.037V241.563H137.578V243.834H129.155V256.505ZM140.083 249.107C140.083 247.427 140.405 246.007 141.05 244.844C141.704 243.673 142.568 242.784 143.643 242.178C144.727 241.573 145.908 241.27 147.188 241.27C148.535 241.27 149.717 241.573 150.732 242.178C151.758 242.784 152.559 243.673 153.135 244.844C153.711 246.007 153.999 247.427 153.999 249.107C153.999 250.787 153.672 252.203 153.018 253.355C152.373 254.508 151.514 255.382 150.439 255.977C149.365 256.573 148.184 256.871 146.895 256.871C145.557 256.871 144.375 256.573 143.35 255.977C142.324 255.382 141.523 254.508 140.947 253.355C140.371 252.203 140.083 250.787 140.083 249.107ZM142.793 249.107C142.793 250.816 143.184 252.149 143.965 253.106C144.756 254.053 145.781 254.527 147.041 254.527C148.223 254.527 149.224 254.053 150.044 253.106C150.874 252.149 151.289 250.816 151.289 249.107C151.289 247.388 150.894 246.046 150.103 245.079C149.321 244.102 148.301 243.614 147.041 243.614C145.859 243.614 144.854 244.102 144.023 245.079C143.203 246.046 142.793 247.388 142.793 249.107ZM157.661 263.682V249.4C157.661 247.574 157.622 246.021 157.544 244.742C157.466 243.453 157.261 242.393 156.929 241.563H159.565C159.673 241.807 159.78 242.164 159.888 242.633C159.995 243.101 160.083 243.673 160.151 244.346C160.845 243.438 161.65 242.701 162.568 242.135C163.486 241.558 164.487 241.27 165.571 241.27C166.685 241.27 167.656 241.588 168.486 242.222C169.326 242.857 169.976 243.731 170.435 244.844C170.903 245.958 171.138 247.232 171.138 248.668C171.138 250.338 170.835 251.788 170.229 253.018C169.634 254.239 168.833 255.186 167.827 255.86C166.821 256.534 165.703 256.871 164.473 256.871C163.691 256.871 162.983 256.724 162.349 256.431C161.724 256.138 161.064 255.748 160.371 255.26V258.702C160.371 259.874 160.4 260.841 160.459 261.602C160.518 262.364 160.61 263.057 160.737 263.682H157.661ZM160.371 248.082V252.696C161.045 253.165 161.602 253.526 162.041 253.78C162.48 254.034 162.881 254.21 163.242 254.307C163.613 254.405 164.023 254.454 164.473 254.454C165.166 254.454 165.811 254.239 166.406 253.809C167.012 253.38 167.5 252.764 167.871 251.964C168.242 251.163 168.428 250.211 168.428 249.107C168.428 247.476 168.13 246.177 167.534 245.211C166.938 244.244 166.113 243.76 165.059 243.76C164.219 243.76 163.364 244.127 162.495 244.859C161.626 245.592 160.918 246.666 160.371 248.082ZM173.921 249.107C173.921 247.427 174.243 246.007 174.888 244.844C175.542 243.673 176.406 242.784 177.48 242.178C178.564 241.573 179.746 241.27 181.025 241.27C182.373 241.27 183.555 241.573 184.57 242.178C185.596 242.784 186.396 243.673 186.973 244.844C187.549 246.007 187.837 247.427 187.837 249.107C187.837 250.787 187.51 252.203 186.855 253.355C186.211 254.508 185.352 255.382 184.277 255.977C183.203 256.573 182.021 256.871 180.732 256.871C179.395 256.871 178.213 256.573 177.188 255.977C176.162 255.382 175.361 254.508 174.785 253.355C174.209 252.203 173.921 250.787 173.921 249.107ZM176.631 249.107C176.631 250.816 177.021 252.149 177.803 253.106C178.594 254.053 179.619 254.527 180.879 254.527C182.061 254.527 183.062 254.053 183.882 253.106C184.712 252.149 185.127 250.816 185.127 249.107C185.127 247.388 184.731 246.046 183.94 245.079C183.159 244.102 182.139 243.614 180.879 243.614C179.697 243.614 178.691 244.102 177.861 245.079C177.041 246.046 176.631 247.388 176.631 249.107ZM189.595 254.381H191.646C192.603 252.584 193.433 250.684 194.136 248.682C194.849 246.671 195.41 244.298 195.82 241.563H204.756C204.658 242.335 204.595 243.37 204.565 244.669C204.546 245.958 204.536 247.315 204.536 248.741V254.381H206.88V262.95H204.756C204.756 262.325 204.741 261.627 204.712 260.855C204.692 260.094 204.653 259.327 204.595 258.555C204.536 257.794 204.443 257.11 204.316 256.505H192.158C192.041 257.11 191.948 257.794 191.88 258.555C191.821 259.327 191.777 260.094 191.748 260.855C191.729 261.627 191.719 262.325 191.719 262.95H189.595V254.381ZM194.429 254.381H201.973V243.687H198.091C197.671 245.67 197.148 247.535 196.523 249.283C195.908 251.031 195.21 252.73 194.429 254.381ZM223.081 256.505H220.518C220.381 256.192 220.259 255.738 220.151 255.142C220.054 254.537 219.98 253.917 219.932 253.282C219.883 252.637 219.858 252.1 219.858 251.671V250.499C219.478 251.505 218.989 252.501 218.394 253.487C217.798 254.464 217.1 255.274 216.299 255.919C215.498 256.553 214.585 256.871 213.56 256.871C212.329 256.871 211.289 256.329 210.439 255.245C209.59 254.151 209.165 252.569 209.165 250.499C209.165 249.337 209.321 248.209 209.634 247.115C209.946 246.011 210.425 245.02 211.069 244.141C211.714 243.262 212.534 242.564 213.53 242.047C214.526 241.529 215.708 241.27 217.075 241.27C218.022 241.27 218.916 241.334 219.756 241.461C220.596 241.578 221.387 241.734 222.129 241.929V248.741C222.129 250.587 222.217 252.139 222.393 253.399C222.568 254.649 222.798 255.684 223.081 256.505ZM219.419 245.738V243.878C219.175 243.829 218.867 243.775 218.496 243.717C218.135 243.648 217.588 243.614 216.855 243.614C215.586 243.614 214.585 243.946 213.853 244.61C213.13 245.264 212.617 246.114 212.314 247.159C212.021 248.204 211.875 249.317 211.875 250.499C211.875 251.632 212.085 252.564 212.505 253.297C212.925 254.019 213.423 254.381 213.999 254.381C214.517 254.381 215.034 254.156 215.552 253.707C216.069 253.248 216.558 252.662 217.017 251.949C217.485 251.226 217.896 250.469 218.247 249.678C218.608 248.878 218.892 248.126 219.097 247.423C219.312 246.719 219.419 246.158 219.419 245.738Z" fill="#F2889C"/>
<path d="M151.75 82.1711V99.8795L163.667 106.921L160.542 112.004L145.5 103.004V82.1711H151.75ZM149.667 119.671C155.333 119.671 160.25 117.588 164.25 113.546C168.417 109.504 170.5 104.629 170.5 98.8378C170.5 93.1711 168.417 88.2545 164.25 84.2545C160.25 80.0878 155.333 78.0045 149.667 78.0045C143.875 78.0045 139 80.0878 134.958 84.2545C130.917 88.2545 128.833 93.1711 128.833 98.8378C128.833 104.629 130.917 109.504 134.958 113.546C139 117.588 143.875 119.671 149.667 119.671ZM139.25 144.671C141.083 144.671 142.583 144.004 143.75 142.754C144.917 141.504 145.5 140.046 145.5 138.421C145.5 136.671 144.917 135.213 143.75 133.963C142.583 132.713 141.083 132.171 139.25 132.171C137.417 132.171 135.917 132.713 134.75 133.963C133.583 135.213 133 136.671 133 138.421C133 140.046 133.583 141.504 134.75 142.754C135.917 144.004 137.417 144.671 139.25 144.671ZM95.5 119.671H129.292C123.417 114.004 120.5 107.171 120.5 98.8378H95.5V119.671ZM101.75 144.671C103.583 144.671 105.083 144.004 106.25 142.754C107.417 141.504 108 140.046 108 138.421C108 136.671 107.417 135.213 106.25 133.963C105.083 132.713 103.583 132.171 101.75 132.171C99.9167 132.171 98.4167 132.713 97.25 133.963C96.0833 135.213 95.5 136.671 95.5 138.421C95.5 140.046 96.0833 141.504 97.25 142.754C98.4167 144.004 99.9167 144.671 101.75 144.671ZM149.667 69.6711C157.667 69.6711 164.583 72.4628 170.292 78.2128C176.042 83.9211 178.833 90.8378 178.833 98.8378C178.833 106.213 176.5 112.546 171.667 117.963C166.875 123.338 160.917 126.588 153.833 127.629V140.504C153.833 144.004 152.458 147.088 149.667 149.671V157.171C149.667 158.296 149.208 159.254 148.417 160.129C147.583 160.963 146.667 161.338 145.5 161.338H141.333C140.208 161.338 139.25 160.963 138.375 160.129C137.985 159.743 137.677 159.282 137.469 158.773C137.262 158.265 137.159 157.72 137.167 157.171V153.004H103.833V157.171C103.833 158.296 103.458 159.254 102.625 160.129C101.75 160.963 100.792 161.338 99.6667 161.338H95.5C94.3333 161.338 93.4167 160.963 92.5833 160.129C91.7917 159.254 91.3333 158.296 91.3333 157.171V149.671C88.5417 147.088 87.1667 144.004 87.1667 140.504V98.8378C87.1667 92.2545 89.9583 87.7961 95.7083 85.5045C101.417 83.2545 109.708 82.1711 120.5 82.1711H123.042C124.208 82.1711 125.042 82.2961 125.583 82.2961C131.458 73.8378 139.458 69.6711 149.667 69.6711Z" fill="#F2889C"/>
</svg>
