<svg width="50" height="50" viewBox="0 0 50 50" fill="none" xmlns="http://www.w3.org/2000/svg">
<path d="M46.3855 5.05833C45.7921 4.56532 45.0763 4.24222 44.314 4.12338C43.5518 4.00453 42.7716 4.09436 42.0563 4.38334L4.72088 19.4563C3.92266 19.7848 3.24319 20.3483 2.77263 21.0719C2.30208 21.7956 2.06267 22.6452 2.08617 23.5081C2.10968 24.3709 2.39498 25.2062 2.90424 25.9032C3.41349 26.6002 4.12262 27.1258 4.93754 27.4104L12.4896 30.0375L16.698 43.9583C16.7557 44.1441 16.8391 44.3208 16.9459 44.4833C16.9625 44.5083 16.9855 44.525 17.0021 44.5521C17.1252 44.7227 17.2734 44.8737 17.4417 45L17.5875 45.1042C17.7852 45.2346 18.0036 45.3304 18.2334 45.3875L18.2605 45.3896L18.273 45.3958C18.4121 45.4241 18.5539 45.4381 18.6959 45.4375L18.7334 45.4313C18.9467 45.4275 19.1582 45.3909 19.3605 45.3229C19.4063 45.3035 19.4507 45.2826 19.4938 45.2604C19.645 45.1983 19.7883 45.1186 19.9209 45.0229L20.2375 44.7542L25.8667 38.5396L34.2625 45.0438C35.0013 45.6198 35.9112 45.9328 36.848 45.9333C37.8297 45.9322 38.7812 45.5935 39.5429 44.9741C40.3046 44.3547 40.8301 43.4922 41.0313 42.5313L47.8292 9.1625C47.983 8.41179 47.9299 7.6334 47.6756 6.91053C47.4213 6.18765 46.9754 5.54745 46.3855 5.05833ZM19.5209 30.7C19.2329 30.9884 19.0359 31.3549 18.9542 31.7542L18.3084 34.8875L16.675 29.4854L25.1438 25.075L19.5209 30.7ZM36.8167 41.75L26.8938 34.0625C26.4788 33.7416 25.958 33.5891 25.4355 33.6355C24.9129 33.6818 24.4271 33.9236 24.075 34.3125L22.2709 36.3021L22.9084 33.2042L37.6646 18.4479C38.0147 18.0957 38.2275 17.6299 38.2645 17.1346C38.3016 16.6394 38.1604 16.1471 37.8666 15.7467C37.5728 15.3463 37.1455 15.064 36.662 14.9508C36.1784 14.8376 35.6703 14.9008 35.2292 15.1292L14.0521 26.1542L6.29171 23.3146L43.748 8.33333L36.8167 41.75Z" fill="#BF7582"/>
</svg>
