<svg width="207" height="23" viewBox="0 0 207 23" fill="none" xmlns="http://www.w3.org/2000/svg">
<path d="M12.209 15.5046H0.563477V7.74097C0.563477 6.31519 0.548828 4.95776 0.519531 3.6687C0.5 2.36987 0.441406 1.33472 0.34375 0.563232H3.27344V13.3806H9.71875V0.563232H12.6484C12.5508 1.33472 12.4873 2.36987 12.458 3.6687C12.4385 4.95776 12.4287 6.31519 12.4287 7.74097V13.3806H14.7725V21.95H12.6484C12.6484 21.325 12.6338 20.6267 12.6045 19.8552C12.585 19.0935 12.5459 18.3269 12.4873 17.5554C12.4287 16.7937 12.3359 16.1101 12.209 15.5046ZM30.0068 8.40015H19.6211C19.6699 10.1091 20.1289 11.3787 20.998 12.2087C21.877 13.0388 22.9805 13.4539 24.3086 13.4539C25.2559 13.4539 26.1836 13.3464 27.0918 13.1316C28.0098 12.907 28.9131 12.5261 29.8018 11.989L30.0947 14.406C29.0596 14.9431 28.0586 15.3191 27.0918 15.5339C26.125 15.7585 25.0752 15.8708 23.9424 15.8708C22.7021 15.8708 21.5449 15.5828 20.4707 15.0066C19.4062 14.4304 18.5469 13.5759 17.8926 12.4431C17.2383 11.3103 16.9111 9.91382 16.9111 8.25366C16.9111 6.63257 17.1943 5.22632 17.7607 4.03491C18.3369 2.84351 19.1475 1.92065 20.1924 1.26636C21.2471 0.602295 22.4971 0.270264 23.9424 0.270264C25.1533 0.270264 26.1494 0.475342 26.9307 0.885498C27.7217 1.29565 28.3418 1.84253 28.791 2.52612C29.2402 3.20972 29.5576 3.96655 29.7432 4.79663C29.9287 5.61694 30.0215 6.43726 30.0215 7.25757C30.0215 7.38452 30.0215 7.57495 30.0215 7.82886C30.0215 8.073 30.0166 8.26343 30.0068 8.40015ZM19.7383 6.34937H27.3848C27.3848 5.0896 27.0381 4.12769 26.3447 3.46362C25.6611 2.79956 24.7871 2.46753 23.7227 2.46753C22.6582 2.46753 21.7793 2.78491 21.0859 3.41968C20.4023 4.04468 19.9531 5.02124 19.7383 6.34937ZM34.1377 15.5046V7.74097C34.1377 6.31519 34.123 4.95776 34.0938 3.6687C34.0742 2.36987 34.0156 1.33472 33.918 0.563232H36.8477V6.42261H44.1719V0.563232H46.8818V8.3269C46.8818 9.75269 46.8916 11.115 46.9111 12.4138C46.9404 13.7029 47.0039 14.7332 47.1016 15.5046H44.1719V8.54663H36.8477V15.5046H34.1377ZM64.0938 0.563232V2.68726H58.6006V15.5046H55.8906V2.68726H50.3975V0.563232H64.0938ZM67.3311 22.6824V8.40015C67.3311 6.57397 67.292 5.02124 67.2139 3.74194C67.1357 2.45288 66.9307 1.39331 66.5986 0.563232H69.2354C69.3428 0.807373 69.4502 1.16382 69.5576 1.63257C69.665 2.10132 69.7529 2.67261 69.8213 3.34644C70.5146 2.43823 71.3203 1.70093 72.2383 1.13452C73.1562 0.55835 74.1572 0.270264 75.2412 0.270264C76.3545 0.270264 77.3262 0.587646 78.1562 1.22241C78.9961 1.85718 79.6455 2.7312 80.1045 3.84448C80.5732 4.95776 80.8076 6.23218 80.8076 7.66772C80.8076 9.33765 80.5049 10.7878 79.8994 12.0183C79.3037 13.239 78.5029 14.1863 77.4971 14.8601C76.4912 15.5339 75.373 15.8708 74.1426 15.8708C73.3613 15.8708 72.6533 15.7244 72.0186 15.4314C71.3936 15.1384 70.7344 14.7478 70.041 14.2595V17.7019C70.041 18.8738 70.0703 19.8406 70.1289 20.6023C70.1875 21.364 70.2803 22.0574 70.4072 22.6824H67.3311ZM70.041 7.08179V11.696C70.7148 12.1648 71.2715 12.5261 71.7109 12.78C72.1504 13.0339 72.5508 13.2097 72.9121 13.3074C73.2832 13.405 73.6934 13.4539 74.1426 13.4539C74.8359 13.4539 75.4805 13.239 76.0762 12.8093C76.6816 12.3796 77.1699 11.7644 77.541 10.9636C77.9121 10.1628 78.0977 9.21069 78.0977 8.10718C78.0977 6.47632 77.7998 5.17749 77.2041 4.21069C76.6084 3.2439 75.7832 2.7605 74.7285 2.7605C73.8887 2.7605 73.0342 3.12671 72.165 3.85913C71.2959 4.59155 70.5879 5.66577 70.041 7.08179ZM97.6533 15.5046H95.0898C94.9531 15.1921 94.8311 14.738 94.7236 14.1423C94.626 13.5369 94.5527 12.9167 94.5039 12.282C94.4551 11.6375 94.4307 11.1003 94.4307 10.6707V9.49878C94.0498 10.5046 93.5615 11.5007 92.9658 12.4871C92.3701 13.4636 91.6719 14.2742 90.8711 14.9187C90.0703 15.5535 89.1572 15.8708 88.1318 15.8708C86.9014 15.8708 85.8613 15.3289 85.0117 14.2449C84.1621 13.1511 83.7373 11.5691 83.7373 9.49878C83.7373 8.33667 83.8936 7.20874 84.2061 6.11499C84.5186 5.01147 84.9971 4.02026 85.6416 3.14136C86.2861 2.26245 87.1064 1.56421 88.1025 1.04663C89.0986 0.529053 90.2803 0.270264 91.6475 0.270264C92.5947 0.270264 93.4883 0.33374 94.3281 0.460693C95.168 0.577881 95.959 0.734131 96.7012 0.929443V7.74097C96.7012 9.58667 96.7891 11.1394 96.9648 12.3992C97.1406 13.6492 97.3701 14.6843 97.6533 15.5046ZM93.9912 4.73804V2.87769C93.7471 2.82886 93.4395 2.77515 93.0684 2.71655C92.707 2.64819 92.1602 2.61401 91.4277 2.61401C90.1582 2.61401 89.1572 2.94604 88.4248 3.61011C87.7021 4.2644 87.1895 5.11401 86.8867 6.15894C86.5938 7.20386 86.4473 8.31714 86.4473 9.49878C86.4473 10.6316 86.6572 11.5642 87.0771 12.2966C87.4971 13.0193 87.9951 13.3806 88.5713 13.3806C89.0889 13.3806 89.6064 13.156 90.124 12.7068C90.6416 12.2478 91.1299 11.6619 91.5889 10.949C92.0576 10.2263 92.4678 9.46948 92.8193 8.67847C93.1807 7.87769 93.4639 7.12573 93.6689 6.42261C93.8838 5.71948 93.9912 5.15796 93.9912 4.73804ZM112.155 15.5046H109.299C109.377 15.0945 109.421 14.4988 109.431 13.7175C109.44 12.9363 109.445 12.0427 109.445 11.0369V0.563232H120.578V2.83374H112.155V15.5046ZM123.083 8.10718C123.083 6.42749 123.405 5.00659 124.05 3.84448C124.704 2.67261 125.568 1.78394 126.643 1.17847C127.727 0.572998 128.908 0.270264 130.188 0.270264C131.535 0.270264 132.717 0.572998 133.732 1.17847C134.758 1.78394 135.559 2.67261 136.135 3.84448C136.711 5.00659 136.999 6.42749 136.999 8.10718C136.999 9.78687 136.672 11.2029 136.018 12.3552C135.373 13.5076 134.514 14.3816 133.439 14.9773C132.365 15.573 131.184 15.8708 129.895 15.8708C128.557 15.8708 127.375 15.573 126.35 14.9773C125.324 14.3816 124.523 13.5076 123.947 12.3552C123.371 11.2029 123.083 9.78687 123.083 8.10718ZM125.793 8.10718C125.793 9.81616 126.184 11.1492 126.965 12.1062C127.756 13.0535 128.781 13.5271 130.041 13.5271C131.223 13.5271 132.224 13.0535 133.044 12.1062C133.874 11.1492 134.289 9.81616 134.289 8.10718C134.289 6.38843 133.894 5.04565 133.103 4.07886C132.321 3.10229 131.301 2.61401 130.041 2.61401C128.859 2.61401 127.854 3.10229 127.023 4.07886C126.203 5.04565 125.793 6.38843 125.793 8.10718ZM140.661 22.6824V8.40015C140.661 6.57397 140.622 5.02124 140.544 3.74194C140.466 2.45288 140.261 1.39331 139.929 0.563232H142.565C142.673 0.807373 142.78 1.16382 142.888 1.63257C142.995 2.10132 143.083 2.67261 143.151 3.34644C143.845 2.43823 144.65 1.70093 145.568 1.13452C146.486 0.55835 147.487 0.270264 148.571 0.270264C149.685 0.270264 150.656 0.587646 151.486 1.22241C152.326 1.85718 152.976 2.7312 153.435 3.84448C153.903 4.95776 154.138 6.23218 154.138 7.66772C154.138 9.33765 153.835 10.7878 153.229 12.0183C152.634 13.239 151.833 14.1863 150.827 14.8601C149.821 15.5339 148.703 15.8708 147.473 15.8708C146.691 15.8708 145.983 15.7244 145.349 15.4314C144.724 15.1384 144.064 14.7478 143.371 14.2595V17.7019C143.371 18.8738 143.4 19.8406 143.459 20.6023C143.518 21.364 143.61 22.0574 143.737 22.6824H140.661ZM143.371 7.08179V11.696C144.045 12.1648 144.602 12.5261 145.041 12.78C145.48 13.0339 145.881 13.2097 146.242 13.3074C146.613 13.405 147.023 13.4539 147.473 13.4539C148.166 13.4539 148.811 13.239 149.406 12.8093C150.012 12.3796 150.5 11.7644 150.871 10.9636C151.242 10.1628 151.428 9.21069 151.428 8.10718C151.428 6.47632 151.13 5.17749 150.534 4.21069C149.938 3.2439 149.113 2.7605 148.059 2.7605C147.219 2.7605 146.364 3.12671 145.495 3.85913C144.626 4.59155 143.918 5.66577 143.371 7.08179ZM156.921 8.10718C156.921 6.42749 157.243 5.00659 157.888 3.84448C158.542 2.67261 159.406 1.78394 160.48 1.17847C161.564 0.572998 162.746 0.270264 164.025 0.270264C165.373 0.270264 166.555 0.572998 167.57 1.17847C168.596 1.78394 169.396 2.67261 169.973 3.84448C170.549 5.00659 170.837 6.42749 170.837 8.10718C170.837 9.78687 170.51 11.2029 169.855 12.3552C169.211 13.5076 168.352 14.3816 167.277 14.9773C166.203 15.573 165.021 15.8708 163.732 15.8708C162.395 15.8708 161.213 15.573 160.188 14.9773C159.162 14.3816 158.361 13.5076 157.785 12.3552C157.209 11.2029 156.921 9.78687 156.921 8.10718ZM159.631 8.10718C159.631 9.81616 160.021 11.1492 160.803 12.1062C161.594 13.0535 162.619 13.5271 163.879 13.5271C165.061 13.5271 166.062 13.0535 166.882 12.1062C167.712 11.1492 168.127 9.81616 168.127 8.10718C168.127 6.38843 167.731 5.04565 166.94 4.07886C166.159 3.10229 165.139 2.61401 163.879 2.61401C162.697 2.61401 161.691 3.10229 160.861 4.07886C160.041 5.04565 159.631 6.38843 159.631 8.10718ZM172.595 13.3806H174.646C175.603 11.5837 176.433 9.68433 177.136 7.68237C177.849 5.67065 178.41 3.29761 178.82 0.563232H187.756C187.658 1.33472 187.595 2.36987 187.565 3.6687C187.546 4.95776 187.536 6.31519 187.536 7.74097V13.3806H189.88V21.95H187.756C187.756 21.325 187.741 20.6267 187.712 19.8552C187.692 19.0935 187.653 18.3269 187.595 17.5554C187.536 16.7937 187.443 16.1101 187.316 15.5046H175.158C175.041 16.1101 174.948 16.7937 174.88 17.5554C174.821 18.3269 174.777 19.0935 174.748 19.8552C174.729 20.6267 174.719 21.325 174.719 21.95H172.595V13.3806ZM177.429 13.3806H184.973V2.68726H181.091C180.671 4.66968 180.148 6.53491 179.523 8.28296C178.908 10.031 178.21 11.7302 177.429 13.3806ZM206.081 15.5046H203.518C203.381 15.1921 203.259 14.738 203.151 14.1423C203.054 13.5369 202.98 12.9167 202.932 12.282C202.883 11.6375 202.858 11.1003 202.858 10.6707V9.49878C202.478 10.5046 201.989 11.5007 201.394 12.4871C200.798 13.4636 200.1 14.2742 199.299 14.9187C198.498 15.5535 197.585 15.8708 196.56 15.8708C195.329 15.8708 194.289 15.3289 193.439 14.2449C192.59 13.1511 192.165 11.5691 192.165 9.49878C192.165 8.33667 192.321 7.20874 192.634 6.11499C192.946 5.01147 193.425 4.02026 194.069 3.14136C194.714 2.26245 195.534 1.56421 196.53 1.04663C197.526 0.529053 198.708 0.270264 200.075 0.270264C201.022 0.270264 201.916 0.33374 202.756 0.460693C203.596 0.577881 204.387 0.734131 205.129 0.929443V7.74097C205.129 9.58667 205.217 11.1394 205.393 12.3992C205.568 13.6492 205.798 14.6843 206.081 15.5046ZM202.419 4.73804V2.87769C202.175 2.82886 201.867 2.77515 201.496 2.71655C201.135 2.64819 200.588 2.61401 199.855 2.61401C198.586 2.61401 197.585 2.94604 196.853 3.61011C196.13 4.2644 195.617 5.11401 195.314 6.15894C195.021 7.20386 194.875 8.31714 194.875 9.49878C194.875 10.6316 195.085 11.5642 195.505 12.2966C195.925 13.0193 196.423 13.3806 196.999 13.3806C197.517 13.3806 198.034 13.156 198.552 12.7068C199.069 12.2478 199.558 11.6619 200.017 10.949C200.485 10.2263 200.896 9.46948 201.247 8.67847C201.608 7.87769 201.892 7.12573 202.097 6.42261C202.312 5.71948 202.419 5.15796 202.419 4.73804Z" fill="#F2889C"/>
</svg>
