<svg width="246" height="300" viewBox="0 0 246 300" fill="none" xmlns="http://www.w3.org/2000/svg">
<g clip-path="url(#clip0_133_8)">
<path d="M39.7676 224.251V232.234C40.041 232.244 40.4756 232.259 41.0713 232.278C41.6768 232.298 42.3896 232.307 43.21 232.307C44.1475 232.307 45.0068 232.166 45.7881 231.883C46.5791 231.599 47.2139 231.145 47.6924 230.52C48.1709 229.895 48.4102 229.075 48.4102 228.059C48.4102 226.712 47.9463 225.74 47.0186 225.144C46.0908 224.549 44.7725 224.251 43.0635 224.251H39.7676ZM36.7646 213.118H49.875V215.755C49.2891 215.647 48.4395 215.584 47.3262 215.564C46.2129 215.545 44.9336 215.535 43.4883 215.535H39.7676V221.98H43.0635C45.9541 221.98 48.0439 222.537 49.333 223.65C50.6221 224.763 51.2666 226.233 51.2666 228.059C51.2666 229.241 50.9785 230.335 50.4023 231.341C49.8359 232.337 48.9521 233.137 47.751 233.743C46.5596 234.348 45.0264 234.651 43.1514 234.651C42.4092 234.651 41.6621 234.641 40.9102 234.622C40.1582 234.612 39.4697 234.597 38.8447 234.578C38.2197 234.558 37.7168 234.539 37.3359 234.519C36.9551 234.51 36.7646 234.505 36.7646 234.505C36.8721 233.919 36.9355 233.025 36.9551 231.824C36.9746 230.613 36.9844 229.285 36.9844 227.84V219.49C36.9844 218.045 36.9746 216.77 36.9551 215.667C36.9355 214.553 36.8721 213.704 36.7646 213.118ZM67.8926 227.4H57.5068C57.5557 229.109 58.0146 230.379 58.8838 231.209C59.7627 232.039 60.8662 232.454 62.1943 232.454C63.1416 232.454 64.0693 232.346 64.9775 232.132C65.8955 231.907 66.7988 231.526 67.6875 230.989L67.9805 233.406C66.9453 233.943 65.9443 234.319 64.9775 234.534C64.0107 234.759 62.9609 234.871 61.8281 234.871C60.5879 234.871 59.4307 234.583 58.3564 234.007C57.292 233.43 56.4326 232.576 55.7783 231.443C55.124 230.31 54.7969 228.914 54.7969 227.254C54.7969 225.633 55.0801 224.226 55.6465 223.035C56.2227 221.844 57.0332 220.921 58.0781 220.266C59.1328 219.602 60.3828 219.27 61.8281 219.27C63.0391 219.27 64.0352 219.475 64.8164 219.885C65.6074 220.296 66.2275 220.843 66.6768 221.526C67.126 222.21 67.4434 222.967 67.6289 223.797C67.8145 224.617 67.9072 225.437 67.9072 226.258C67.9072 226.385 67.9072 226.575 67.9072 226.829C67.9072 227.073 67.9023 227.263 67.8926 227.4ZM57.624 225.349H65.2705C65.2705 224.09 64.9238 223.128 64.2305 222.464C63.5469 221.8 62.6729 221.468 61.6084 221.468C60.5439 221.468 59.665 221.785 58.9717 222.42C58.2881 223.045 57.8389 224.021 57.624 225.349ZM76.6377 234.871C75.6514 234.871 74.6309 234.759 73.5762 234.534C72.5215 234.319 71.6621 234.016 70.998 233.626L71.5107 231.135C72.2334 231.643 73.0635 232.014 74.001 232.249C74.9482 232.483 75.876 232.6 76.7842 232.6C77.9463 232.6 78.9082 232.4 79.6699 232C80.4316 231.59 80.8125 230.984 80.8125 230.183C80.8125 229.402 80.4121 228.782 79.6113 228.323C78.8105 227.854 77.7949 227.62 76.5645 227.62H73.4883V225.569H76.5645C77.6582 225.569 78.5664 225.388 79.2891 225.027C80.0117 224.656 80.373 224.129 80.373 223.445C80.373 222.752 80.0312 222.263 79.3477 221.98C78.6641 221.687 77.7607 221.541 76.6377 221.541C75.9932 221.541 75.2266 221.624 74.3379 221.79C73.4492 221.946 72.6289 222.254 71.877 222.713L71.5107 220.369C72.3115 219.978 73.2002 219.7 74.1768 219.534C75.1631 219.358 76.1543 219.27 77.1504 219.27C78.1562 219.27 79.0986 219.407 79.9775 219.68C80.8564 219.944 81.5693 220.344 82.1162 220.882C82.6631 221.409 82.9365 222.068 82.9365 222.859C82.9365 223.504 82.7803 224.085 82.4678 224.602C82.1553 225.12 81.7646 225.54 81.2959 225.862C80.8271 226.184 80.3486 226.38 79.8604 226.448C80.3486 226.497 80.8711 226.673 81.4277 226.975C81.9844 227.268 82.458 227.678 82.8486 228.206C83.249 228.733 83.4492 229.368 83.4492 230.11C83.4492 231.009 83.166 231.819 82.5996 232.542C82.0332 233.255 81.2373 233.821 80.2119 234.241C79.1963 234.661 78.0049 234.871 76.6377 234.871ZM86.2324 227.107C86.2324 225.427 86.5547 224.007 87.1992 222.844C87.8535 221.673 88.7178 220.784 89.792 220.178C90.876 219.573 92.0576 219.27 93.3369 219.27C94.6846 219.27 95.8662 219.573 96.8818 220.178C97.9072 220.784 98.708 221.673 99.2842 222.844C99.8604 224.007 100.148 225.427 100.148 227.107C100.148 228.787 99.8213 230.203 99.167 231.355C98.5225 232.508 97.6631 233.382 96.5889 233.977C95.5146 234.573 94.333 234.871 93.0439 234.871C91.7061 234.871 90.5244 234.573 89.499 233.977C88.4736 233.382 87.6729 232.508 87.0967 231.355C86.5205 230.203 86.2324 228.787 86.2324 227.107ZM88.9424 227.107C88.9424 228.816 89.333 230.149 90.1143 231.106C90.9053 232.053 91.9307 232.527 93.1904 232.527C94.3721 232.527 95.373 232.053 96.1934 231.106C97.0234 230.149 97.4385 228.816 97.4385 227.107C97.4385 225.388 97.043 224.046 96.252 223.079C95.4707 222.102 94.4502 221.614 93.1904 221.614C92.0088 221.614 91.0029 222.102 90.1729 223.079C89.3525 224.046 88.9424 225.388 88.9424 227.107ZM116.481 219.563V227.327C116.481 228.753 116.491 230.115 116.511 231.414C116.54 232.703 116.604 233.733 116.701 234.505H113.771V221.687H106.74V234.505H104.03V219.563H116.481ZM134.66 234.505H132.097C131.96 234.192 131.838 233.738 131.73 233.142C131.633 232.537 131.56 231.917 131.511 231.282C131.462 230.637 131.438 230.1 131.438 229.671V228.499C131.057 229.505 130.568 230.501 129.973 231.487C129.377 232.464 128.679 233.274 127.878 233.919C127.077 234.553 126.164 234.871 125.139 234.871C123.908 234.871 122.868 234.329 122.019 233.245C121.169 232.151 120.744 230.569 120.744 228.499C120.744 227.337 120.9 226.209 121.213 225.115C121.525 224.011 122.004 223.02 122.648 222.141C123.293 221.262 124.113 220.564 125.109 220.047C126.105 219.529 127.287 219.27 128.654 219.27C129.602 219.27 130.495 219.334 131.335 219.461C132.175 219.578 132.966 219.734 133.708 219.929V226.741C133.708 228.587 133.796 230.139 133.972 231.399C134.147 232.649 134.377 233.684 134.66 234.505ZM130.998 223.738V221.878C130.754 221.829 130.446 221.775 130.075 221.717C129.714 221.648 129.167 221.614 128.435 221.614C127.165 221.614 126.164 221.946 125.432 222.61C124.709 223.264 124.196 224.114 123.894 225.159C123.601 226.204 123.454 227.317 123.454 228.499C123.454 229.632 123.664 230.564 124.084 231.297C124.504 232.019 125.002 232.381 125.578 232.381C126.096 232.381 126.613 232.156 127.131 231.707C127.648 231.248 128.137 230.662 128.596 229.949C129.064 229.226 129.475 228.469 129.826 227.678C130.188 226.878 130.471 226.126 130.676 225.423C130.891 224.719 130.998 224.158 130.998 223.738ZM149.455 220.515L148.942 223.152C148.288 222.664 147.629 222.298 146.965 222.053C146.301 221.809 145.593 221.687 144.841 221.687C143.542 221.687 142.448 222.171 141.56 223.137C140.671 224.104 140.227 225.452 140.227 227.18C140.227 228.753 140.642 230.027 141.472 231.004C142.302 231.97 143.425 232.454 144.841 232.454C145.72 232.454 146.525 232.302 147.258 232C147.99 231.697 148.674 231.262 149.309 230.696L149.602 233.26C148.859 233.816 148.107 234.226 147.346 234.49C146.584 234.744 145.651 234.871 144.548 234.871C143.239 234.871 142.048 234.568 140.974 233.963C139.899 233.347 139.04 232.478 138.396 231.355C137.761 230.222 137.443 228.88 137.443 227.327C137.443 225.852 137.751 224.505 138.366 223.284C138.991 222.063 139.875 221.092 141.018 220.369C142.16 219.636 143.508 219.27 145.061 219.27C146.037 219.27 146.877 219.387 147.58 219.622C148.293 219.846 148.918 220.144 149.455 220.515ZM153.557 234.505V226.741C153.557 225.315 153.542 223.958 153.513 222.669C153.493 221.37 153.435 220.335 153.337 219.563H156.267V225.423H163.591V219.563H166.301V227.327C166.301 228.753 166.311 230.115 166.33 231.414C166.359 232.703 166.423 233.733 166.521 234.505H163.591V227.547H156.267V234.505H153.557ZM170.256 227.107C170.256 225.427 170.578 224.007 171.223 222.844C171.877 221.673 172.741 220.784 173.815 220.178C174.899 219.573 176.081 219.27 177.36 219.27C178.708 219.27 179.89 219.573 180.905 220.178C181.931 220.784 182.731 221.673 183.308 222.844C183.884 224.007 184.172 225.427 184.172 227.107C184.172 228.787 183.845 230.203 183.19 231.355C182.546 232.508 181.687 233.382 180.612 233.977C179.538 234.573 178.356 234.871 177.067 234.871C175.729 234.871 174.548 234.573 173.522 233.977C172.497 233.382 171.696 232.508 171.12 231.355C170.544 230.203 170.256 228.787 170.256 227.107ZM172.966 227.107C172.966 228.816 173.356 230.149 174.138 231.106C174.929 232.053 175.954 232.527 177.214 232.527C178.396 232.527 179.396 232.053 180.217 231.106C181.047 230.149 181.462 228.816 181.462 227.107C181.462 225.388 181.066 224.046 180.275 223.079C179.494 222.102 178.474 221.614 177.214 221.614C176.032 221.614 175.026 222.102 174.196 223.079C173.376 224.046 172.966 225.388 172.966 227.107ZM195.964 219.563H198.527V230.359L206.657 220.266V219.563H209.074V230.037C209.074 231.043 209.079 231.936 209.089 232.718C209.108 233.499 209.152 234.094 209.221 234.505H206.657V223.767L198.527 233.802V234.505H196.11V224.031C196.11 223.015 196.105 222.122 196.096 221.35C196.086 220.569 196.042 219.973 195.964 219.563ZM30.0264 260.034C30.0264 261.421 29.7578 262.71 29.2207 263.901C28.6836 265.093 27.8877 266.054 26.833 266.787C25.7881 267.51 24.4844 267.871 22.9219 267.871C21.3984 267.871 20.1191 267.48 19.084 266.699C18.0488 265.918 17.2676 264.829 16.7402 263.432C16.2227 262.036 15.9639 260.415 15.9639 258.569C15.9639 257.055 16.0908 255.591 16.3447 254.175C16.5986 252.749 17.0869 251.426 17.8096 250.205C18.542 248.974 19.6113 247.905 21.0176 246.997C21.6816 246.567 22.3604 246.26 23.0537 246.074C23.7471 245.879 24.4502 245.742 25.1631 245.664C25.8857 245.586 26.6133 245.508 27.3457 245.429C28.0879 245.342 28.835 245.18 29.5869 244.946L28.7812 247.583C27.9219 247.885 27.126 248.066 26.3936 248.125C25.6709 248.174 24.9775 248.242 24.3135 248.33C23.6592 248.408 23 248.647 22.3359 249.048C21.7793 249.38 21.2275 249.858 20.6807 250.483C20.1436 251.108 19.6943 251.86 19.333 252.739C18.9717 253.608 18.7764 254.59 18.7471 255.683C19.2354 254.97 19.9189 254.336 20.7979 253.779C21.6865 253.213 22.7363 252.929 23.9473 252.929C25.2266 252.929 26.3203 253.261 27.2285 253.926C28.1367 254.58 28.8301 255.449 29.3086 256.533C29.7871 257.607 30.0264 258.774 30.0264 260.034ZM23.2881 255.346C22.5654 255.346 21.9209 255.508 21.3545 255.83C20.7979 256.142 20.2998 256.548 19.8604 257.046C19.4307 257.534 19.0352 258.047 18.6738 258.584V259.228C18.6738 259.853 18.7568 260.532 18.9229 261.264C19.0889 261.987 19.3477 262.676 19.6992 263.33C20.0508 263.974 20.5098 264.502 21.0762 264.912C21.6523 265.322 22.3408 265.527 23.1416 265.527C23.9717 265.527 24.6992 265.307 25.3242 264.868C25.9492 264.428 26.4375 263.828 26.7891 263.066C27.1406 262.295 27.3164 261.43 27.3164 260.473C27.3164 259.643 27.1895 258.838 26.9355 258.056C26.6816 257.265 26.2568 256.616 25.6611 256.108C25.0752 255.6 24.2842 255.346 23.2881 255.346ZM45.9053 260.4H35.5195C35.5684 262.109 36.0273 263.379 36.8965 264.209C37.7754 265.039 38.8789 265.454 40.207 265.454C41.1543 265.454 42.082 265.346 42.9902 265.132C43.9082 264.907 44.8115 264.526 45.7002 263.989L45.9932 266.406C44.958 266.943 43.957 267.319 42.9902 267.534C42.0234 267.759 40.9736 267.871 39.8408 267.871C38.6006 267.871 37.4434 267.583 36.3691 267.007C35.3047 266.43 34.4453 265.576 33.791 264.443C33.1367 263.31 32.8096 261.914 32.8096 260.254C32.8096 258.633 33.0928 257.226 33.6592 256.035C34.2354 254.844 35.0459 253.921 36.0908 253.266C37.1455 252.602 38.3955 252.27 39.8408 252.27C41.0518 252.27 42.0479 252.475 42.8291 252.885C43.6201 253.296 44.2402 253.843 44.6895 254.526C45.1387 255.21 45.4561 255.967 45.6416 256.797C45.8271 257.617 45.9199 258.437 45.9199 259.258C45.9199 259.385 45.9199 259.575 45.9199 259.829C45.9199 260.073 45.915 260.263 45.9053 260.4ZM35.6367 258.349H43.2832C43.2832 257.09 42.9365 256.128 42.2432 255.464C41.5596 254.8 40.6855 254.468 39.6211 254.468C38.5566 254.468 37.6777 254.785 36.9844 255.42C36.3008 256.045 35.8516 257.021 35.6367 258.349ZM54.6504 267.871C53.6641 267.871 52.6436 267.759 51.5889 267.534C50.5342 267.319 49.6748 267.016 49.0107 266.626L49.5234 264.135C50.2461 264.643 51.0762 265.014 52.0137 265.249C52.9609 265.483 53.8887 265.6 54.7969 265.6C55.959 265.6 56.9209 265.4 57.6826 265C58.4443 264.59 58.8252 263.984 58.8252 263.183C58.8252 262.402 58.4248 261.782 57.624 261.323C56.8232 260.854 55.8076 260.62 54.5771 260.62H51.501V258.569H54.5771C55.6709 258.569 56.5791 258.388 57.3018 258.027C58.0244 257.656 58.3857 257.129 58.3857 256.445C58.3857 255.752 58.0439 255.263 57.3604 254.98C56.6768 254.687 55.7734 254.541 54.6504 254.541C54.0059 254.541 53.2393 254.624 52.3506 254.79C51.4619 254.946 50.6416 255.254 49.8896 255.713L49.5234 253.369C50.3242 252.978 51.2129 252.7 52.1895 252.534C53.1758 252.358 54.167 252.27 55.1631 252.27C56.1689 252.27 57.1113 252.407 57.9902 252.68C58.8691 252.944 59.582 253.344 60.1289 253.882C60.6758 254.409 60.9492 255.068 60.9492 255.859C60.9492 256.504 60.793 257.085 60.4805 257.602C60.168 258.12 59.7773 258.54 59.3086 258.862C58.8398 259.184 58.3613 259.38 57.873 259.448C58.3613 259.497 58.8838 259.673 59.4404 259.975C59.9971 260.268 60.4707 260.678 60.8613 261.206C61.2617 261.733 61.4619 262.368 61.4619 263.11C61.4619 264.009 61.1787 264.819 60.6123 265.542C60.0459 266.255 59.25 266.821 58.2246 267.241C57.209 267.661 56.0176 267.871 54.6504 267.871ZM78.3076 260.034C78.3076 261.421 78.0391 262.71 77.502 263.901C76.9648 265.093 76.1689 266.054 75.1143 266.787C74.0693 267.51 72.7656 267.871 71.2031 267.871C69.6797 267.871 68.4004 267.48 67.3652 266.699C66.3301 265.918 65.5488 264.829 65.0215 263.432C64.5039 262.036 64.2451 260.415 64.2451 258.569C64.2451 257.055 64.3721 255.591 64.626 254.175C64.8799 252.749 65.3682 251.426 66.0908 250.205C66.8232 248.974 67.8926 247.905 69.2988 246.997C69.9629 246.567 70.6416 246.26 71.335 246.074C72.0283 245.879 72.7314 245.742 73.4443 245.664C74.167 245.586 74.8945 245.508 75.627 245.429C76.3691 245.342 77.1162 245.18 77.8682 244.946L77.0625 247.583C76.2031 247.885 75.4072 248.066 74.6748 248.125C73.9521 248.174 73.2588 248.242 72.5947 248.33C71.9404 248.408 71.2812 248.647 70.6172 249.048C70.0605 249.38 69.5088 249.858 68.9619 250.483C68.4248 251.108 67.9756 251.86 67.6143 252.739C67.2529 253.608 67.0576 254.59 67.0283 255.683C67.5166 254.97 68.2002 254.336 69.0791 253.779C69.9678 253.213 71.0176 252.929 72.2285 252.929C73.5078 252.929 74.6016 253.261 75.5098 253.926C76.418 254.58 77.1113 255.449 77.5898 256.533C78.0684 257.607 78.3076 258.774 78.3076 260.034ZM71.5693 255.346C70.8467 255.346 70.2021 255.508 69.6357 255.83C69.0791 256.142 68.5811 256.548 68.1416 257.046C67.7119 257.534 67.3164 258.047 66.9551 258.584V259.228C66.9551 259.853 67.0381 260.532 67.2041 261.264C67.3701 261.987 67.6289 262.676 67.9805 263.33C68.332 263.974 68.791 264.502 69.3574 264.912C69.9336 265.322 70.6221 265.527 71.4229 265.527C72.2529 265.527 72.9805 265.307 73.6055 264.868C74.2305 264.428 74.7188 263.828 75.0703 263.066C75.4219 262.295 75.5977 261.43 75.5977 260.473C75.5977 259.643 75.4707 258.838 75.2168 258.056C74.9629 257.265 74.5381 256.616 73.9424 256.108C73.3564 255.6 72.5654 255.346 71.5693 255.346ZM81.0908 260.107C81.0908 258.427 81.4131 257.007 82.0576 255.844C82.7119 254.673 83.5762 253.784 84.6504 253.178C85.7344 252.573 86.916 252.27 88.1953 252.27C89.543 252.27 90.7246 252.573 91.7402 253.178C92.7656 253.784 93.5664 254.673 94.1426 255.844C94.7188 257.007 95.0068 258.427 95.0068 260.107C95.0068 261.787 94.6797 263.203 94.0254 264.355C93.3809 265.508 92.5215 266.382 91.4473 266.977C90.373 267.573 89.1914 267.871 87.9023 267.871C86.5645 267.871 85.3828 267.573 84.3574 266.977C83.332 266.382 82.5312 265.508 81.9551 264.355C81.3789 263.203 81.0908 261.787 81.0908 260.107ZM83.8008 260.107C83.8008 261.816 84.1914 263.149 84.9727 264.106C85.7637 265.053 86.7891 265.527 88.0488 265.527C89.2305 265.527 90.2314 265.053 91.0518 264.106C91.8818 263.149 92.2969 261.816 92.2969 260.107C92.2969 258.388 91.9014 257.046 91.1104 256.079C90.3291 255.102 89.3086 254.614 88.0488 254.614C86.8672 254.614 85.8613 255.102 85.0312 256.079C84.2109 257.046 83.8008 258.388 83.8008 260.107ZM108.703 254.687H104.528C104.343 256.972 104.064 258.891 103.693 260.444C103.322 261.987 102.868 263.266 102.331 264.282C101.706 265.454 100.969 266.308 100.119 266.845C99.2695 267.383 98.2979 267.651 97.2041 267.651V265.014C97.7705 265.014 98.3271 264.878 98.874 264.604C99.4209 264.321 99.8896 263.799 100.28 263.037C100.593 262.441 100.861 261.738 101.086 260.927C101.311 260.117 101.506 259.052 101.672 257.734C101.838 256.406 101.984 254.682 102.111 252.563H111.56C111.491 252.973 111.447 253.559 111.428 254.321C111.418 255.073 111.413 255.952 111.413 256.958V263.11C111.413 264.233 111.418 265.151 111.428 265.864C111.447 266.577 111.491 267.124 111.56 267.505H108.703V254.687ZM128.112 260.4H117.727C117.775 262.109 118.234 263.379 119.104 264.209C119.982 265.039 121.086 265.454 122.414 265.454C123.361 265.454 124.289 265.346 125.197 265.132C126.115 264.907 127.019 264.526 127.907 263.989L128.2 266.406C127.165 266.943 126.164 267.319 125.197 267.534C124.23 267.759 123.181 267.871 122.048 267.871C120.808 267.871 119.65 267.583 118.576 267.007C117.512 266.43 116.652 265.576 115.998 264.443C115.344 263.31 115.017 261.914 115.017 260.254C115.017 258.633 115.3 257.226 115.866 256.035C116.442 254.844 117.253 253.921 118.298 253.266C119.353 252.602 120.603 252.27 122.048 252.27C123.259 252.27 124.255 252.475 125.036 252.885C125.827 253.296 126.447 253.843 126.896 254.526C127.346 255.21 127.663 255.967 127.849 256.797C128.034 257.617 128.127 258.437 128.127 259.258C128.127 259.385 128.127 259.575 128.127 259.829C128.127 260.073 128.122 260.263 128.112 260.4ZM117.844 258.349H125.49C125.49 257.09 125.144 256.128 124.45 255.464C123.767 254.8 122.893 254.468 121.828 254.468C120.764 254.468 119.885 254.785 119.191 255.42C118.508 256.045 118.059 257.021 117.844 258.349ZM136.857 267.871C135.871 267.871 134.851 267.759 133.796 267.534C132.741 267.319 131.882 267.016 131.218 266.626L131.73 264.135C132.453 264.643 133.283 265.014 134.221 265.249C135.168 265.483 136.096 265.6 137.004 265.6C138.166 265.6 139.128 265.4 139.89 265C140.651 264.59 141.032 263.984 141.032 263.183C141.032 262.402 140.632 261.782 139.831 261.323C139.03 260.854 138.015 260.62 136.784 260.62H133.708V258.569H136.784C137.878 258.569 138.786 258.388 139.509 258.027C140.231 257.656 140.593 257.129 140.593 256.445C140.593 255.752 140.251 255.263 139.567 254.98C138.884 254.687 137.98 254.541 136.857 254.541C136.213 254.541 135.446 254.624 134.558 254.79C133.669 254.946 132.849 255.254 132.097 255.713L131.73 253.369C132.531 252.978 133.42 252.7 134.396 252.534C135.383 252.358 136.374 252.27 137.37 252.27C138.376 252.27 139.318 252.407 140.197 252.68C141.076 252.944 141.789 253.344 142.336 253.882C142.883 254.409 143.156 255.068 143.156 255.859C143.156 256.504 143 257.085 142.688 257.602C142.375 258.12 141.984 258.54 141.516 258.862C141.047 259.184 140.568 259.38 140.08 259.448C140.568 259.497 141.091 259.673 141.647 259.975C142.204 260.268 142.678 260.678 143.068 261.206C143.469 261.733 143.669 262.368 143.669 263.11C143.669 264.009 143.386 264.819 142.819 265.542C142.253 266.255 141.457 266.821 140.432 267.241C139.416 267.661 138.225 267.871 136.857 267.871ZM147.624 267.505V259.741C147.624 258.315 147.609 256.958 147.58 255.669C147.561 254.37 147.502 253.335 147.404 252.563H150.334V258.423H157.658V252.563H160.368V260.327C160.368 261.753 160.378 263.115 160.397 264.414C160.427 265.703 160.49 266.733 160.588 267.505H157.658V260.547H150.334V267.505H147.624ZM177.419 260.4H167.033C167.082 262.109 167.541 263.379 168.41 264.209C169.289 265.039 170.393 265.454 171.721 265.454C172.668 265.454 173.596 265.346 174.504 265.132C175.422 264.907 176.325 264.526 177.214 263.989L177.507 266.406C176.472 266.943 175.471 267.319 174.504 267.534C173.537 267.759 172.487 267.871 171.354 267.871C170.114 267.871 168.957 267.583 167.883 267.007C166.818 266.43 165.959 265.576 165.305 264.443C164.65 263.31 164.323 261.914 164.323 260.254C164.323 258.633 164.606 257.226 165.173 256.035C165.749 254.844 166.56 253.921 167.604 253.266C168.659 252.602 169.909 252.27 171.354 252.27C172.565 252.27 173.562 252.475 174.343 252.885C175.134 253.296 175.754 253.843 176.203 254.526C176.652 255.21 176.97 255.967 177.155 256.797C177.341 257.617 177.434 258.437 177.434 259.258C177.434 259.385 177.434 259.575 177.434 259.829C177.434 260.073 177.429 260.263 177.419 260.4ZM167.15 258.349H174.797C174.797 257.09 174.45 256.128 173.757 255.464C173.073 254.8 172.199 254.468 171.135 254.468C170.07 254.468 169.191 254.785 168.498 255.42C167.814 256.045 167.365 257.021 167.15 258.349ZM181.55 267.505V259.741C181.55 258.315 181.535 256.958 181.506 255.669C181.486 254.37 181.428 253.335 181.33 252.563H184.26V258.423H191.584V252.563H194.294V260.327C194.294 261.753 194.304 263.115 194.323 264.414C194.353 265.703 194.416 266.733 194.514 267.505H191.584V260.547H184.26V267.505H181.55ZM199.421 267.505V259.741C199.421 258.315 199.406 256.958 199.377 255.669C199.357 254.37 199.299 253.335 199.201 252.563H202.131V258.423H209.455V252.563H212.165V260.327C212.165 261.753 212.175 263.115 212.194 264.414C212.224 265.703 212.287 266.733 212.385 267.505H209.455V260.547H202.131V267.505H199.421ZM216.12 260.107C216.12 258.427 216.442 257.007 217.087 255.844C217.741 254.673 218.605 253.784 219.68 253.178C220.764 252.573 221.945 252.27 223.225 252.27C224.572 252.27 225.754 252.573 226.77 253.178C227.795 253.784 228.596 254.673 229.172 255.844C229.748 257.007 230.036 258.427 230.036 260.107C230.036 261.787 229.709 263.203 229.055 264.355C228.41 265.508 227.551 266.382 226.477 266.977C225.402 267.573 224.221 267.871 222.932 267.871C221.594 267.871 220.412 267.573 219.387 266.977C218.361 266.382 217.561 265.508 216.984 264.355C216.408 263.203 216.12 261.787 216.12 260.107ZM218.83 260.107C218.83 261.816 219.221 263.149 220.002 264.106C220.793 265.053 221.818 265.527 223.078 265.527C224.26 265.527 225.261 265.053 226.081 264.106C226.911 263.149 227.326 261.816 227.326 260.107C227.326 258.388 226.931 257.046 226.14 256.079C225.358 255.102 224.338 254.614 223.078 254.614C221.896 254.614 220.891 255.102 220.061 256.079C219.24 257.046 218.83 258.388 218.83 260.107Z" fill="#F2889C"/>
<circle cx="122.961" cy="114.961" r="82.4606" stroke="#F2889C" stroke-width="5"/>
<path d="M110.5 79.8379H93.8334V88.1712H85.5V96.5046H77.1667V121.505H85.5V129.838H93.8334V138.171H102.167V146.505H110.5V154.838H118.833V163.171H127.167V154.838H135.5V146.505H143.833V138.171H152.167V129.838H160.5V121.505H168.833V96.5046H160.5V88.1712H152.167V79.8379H135.5V88.1712H127.167V96.5046H118.833V88.1712H110.5V79.8379ZM110.5 88.1712V96.5046H118.833V104.838H127.167V96.5046H135.5V88.1712H152.167V96.5046H160.5V121.505H152.167V129.838H143.833V138.171H135.5V146.505H127.167V154.838H118.833V146.505H110.5V138.171H102.167V129.838H93.8334V121.505H85.5V96.5046H93.8334V88.1712H110.5Z" fill="#F2889C"/>
</g>
<defs>
<clipPath id="clip0_133_8">
<rect width="246" height="300" fill="white"/>
</clipPath>
</defs>
</svg>
