<svg width="246" height="300" viewBox="0 0 246 300" fill="none" xmlns="http://www.w3.org/2000/svg">
<g clip-path="url(#clip0_133_10)">
<path d="M25.207 224.03H14.8066V243H11.8037C11.9111 242.414 11.9746 241.579 11.9941 240.495C12.0137 239.411 12.0234 238.146 12.0234 236.701V227.985C12.0234 226.54 12.0137 225.266 11.9941 224.162C11.9746 223.049 11.9111 222.199 11.8037 221.613H28.21C28.1025 222.199 28.0391 223.049 28.0195 224.162C28 225.266 27.9902 226.54 27.9902 227.985V236.701C27.9902 238.146 28 239.411 28.0195 240.495C28.0391 241.579 28.1025 242.414 28.21 243H25.207V224.03ZM33.791 250.178V235.896C33.791 234.069 33.752 232.517 33.6738 231.237C33.5957 229.948 33.3906 228.889 33.0586 228.059H35.6953C35.8027 228.303 35.9102 228.659 36.0176 229.128C36.125 229.597 36.2129 230.168 36.2812 230.842C36.9746 229.934 37.7803 229.196 38.6982 228.63C39.6162 228.054 40.6172 227.766 41.7012 227.766C42.8145 227.766 43.7861 228.083 44.6162 228.718C45.4561 229.353 46.1055 230.227 46.5645 231.34C47.0332 232.453 47.2676 233.728 47.2676 235.163C47.2676 236.833 46.9648 238.283 46.3594 239.514C45.7637 240.734 44.9629 241.682 43.957 242.355C42.9512 243.029 41.833 243.366 40.6025 243.366C39.8213 243.366 39.1133 243.22 38.4785 242.927C37.8535 242.634 37.1943 242.243 36.501 241.755V245.197C36.501 246.369 36.5303 247.336 36.5889 248.098C36.6475 248.859 36.7402 249.553 36.8672 250.178H33.791ZM36.501 234.577V239.191C37.1748 239.66 37.7314 240.021 38.1709 240.275C38.6104 240.529 39.0107 240.705 39.3721 240.803C39.7432 240.9 40.1533 240.949 40.6025 240.949C41.2959 240.949 41.9404 240.734 42.5361 240.305C43.1416 239.875 43.6299 239.26 44.001 238.459C44.3721 237.658 44.5576 236.706 44.5576 235.603C44.5576 233.972 44.2598 232.673 43.6641 231.706C43.0684 230.739 42.2432 230.256 41.1885 230.256C40.3486 230.256 39.4941 230.622 38.625 231.354C37.7559 232.087 37.0479 233.161 36.501 234.577ZM51.0029 228.059H53.5664V238.854L61.6963 228.762V228.059H64.1133V238.532C64.1133 239.538 64.1182 240.432 64.1279 241.213C64.1475 241.994 64.1914 242.59 64.2598 243H61.6963V232.263L53.5664 242.297V243H51.1494V232.526C51.1494 231.511 51.1445 230.617 51.1348 229.846C51.125 229.064 51.0811 228.469 51.0029 228.059ZM77.3848 236.848H74.8945C74.0059 236.848 73.2832 237.082 72.7266 237.551C72.3945 237.834 72.1162 238.195 71.8916 238.635C71.667 239.074 71.4424 239.646 71.2178 240.349C70.9932 241.042 70.7051 241.926 70.3535 243H67.5703C68.0684 241.506 68.5078 240.251 68.8887 239.235C69.2793 238.21 69.6943 237.438 70.1338 236.921C70.417 236.589 70.749 236.301 71.1299 236.057C70.3779 235.676 69.7676 235.173 69.2988 234.548C68.8301 233.923 68.5957 233.176 68.5957 232.307C68.5957 230.949 69.1035 229.855 70.1191 229.025C71.1348 228.186 72.6289 227.766 74.6016 227.766C75.7246 227.766 76.7549 227.795 77.6924 227.854C78.6396 227.902 79.4404 227.946 80.0947 227.985V238.532C80.0947 239.538 80.1094 240.432 80.1387 241.213C80.1777 241.994 80.2363 242.59 80.3145 243H77.3848V236.848ZM74.8945 234.797H77.3848V229.89C77.209 229.87 76.9209 229.855 76.5205 229.846C76.1201 229.836 75.71 229.831 75.29 229.831C74.8799 229.821 74.5527 229.816 74.3086 229.816C73.3809 229.816 72.6484 230.021 72.1113 230.432C71.5742 230.832 71.3057 231.408 71.3057 232.16C71.3057 233.059 71.6572 233.723 72.3604 234.152C73.0732 234.582 73.918 234.797 74.8945 234.797ZM97.3213 228.059V230.183H91.8281V243H89.1182V230.183H83.625V228.059H97.3213ZM100.852 243V235.236C100.852 233.811 100.837 232.453 100.808 231.164C100.788 229.865 100.729 228.83 100.632 228.059H103.562V233.918H110.886V228.059H113.596V235.822C113.596 237.248 113.605 238.61 113.625 239.909C113.654 241.198 113.718 242.229 113.815 243H110.886V236.042H103.562V243H100.852ZM136.301 236.042C136.301 236.667 136.311 237.429 136.33 238.327C136.359 239.216 136.394 240.085 136.433 240.935C136.481 241.784 136.535 242.473 136.594 243H133.591C133.591 243 133.591 242.736 133.591 242.209C133.591 241.672 133.591 240.998 133.591 240.188C133.591 239.367 133.591 238.518 133.591 237.639C133.591 236.75 133.591 235.949 133.591 235.236C133.591 233.811 133.576 232.453 133.547 231.164C133.527 229.865 133.469 228.83 133.371 228.059H136.301C136.301 228.059 136.301 228.293 136.301 228.762C136.301 229.221 136.301 229.807 136.301 230.52C136.301 231.223 136.301 231.955 136.301 232.717C136.301 233.469 136.301 234.152 136.301 234.768C136.301 235.373 136.301 235.798 136.301 236.042ZM121.213 233.552H124.729C126.818 233.552 128.376 233.967 129.401 234.797C130.437 235.617 130.954 236.667 130.954 237.946C130.954 239.577 130.461 240.852 129.475 241.77C128.498 242.688 126.989 243.146 124.948 243.146C124.265 243.146 123.503 243.142 122.663 243.132C121.833 243.122 121.027 243.103 120.246 243.073C119.475 243.054 118.82 243.029 118.283 243C118.361 242.59 118.415 241.96 118.444 241.11C118.483 240.251 118.503 239.318 118.503 238.312V232.746C118.503 231.74 118.483 230.812 118.444 229.963C118.415 229.104 118.361 228.469 118.283 228.059H121.213V233.552ZM121.213 235.603V241.096C121.711 241.125 122.292 241.145 122.956 241.154C123.62 241.164 124.235 241.169 124.802 241.169C125.905 241.169 126.765 240.91 127.38 240.393C128.005 239.865 128.317 239.123 128.317 238.166C128.317 237.189 127.961 236.521 127.248 236.159C126.545 235.788 125.705 235.603 124.729 235.603H121.213ZM153.352 235.896H142.966C143.015 237.604 143.474 238.874 144.343 239.704C145.222 240.534 146.325 240.949 147.653 240.949C148.601 240.949 149.528 240.842 150.437 240.627C151.354 240.402 152.258 240.021 153.146 239.484L153.439 241.901C152.404 242.438 151.403 242.814 150.437 243.029C149.47 243.254 148.42 243.366 147.287 243.366C146.047 243.366 144.89 243.078 143.815 242.502C142.751 241.926 141.892 241.071 141.237 239.938C140.583 238.806 140.256 237.409 140.256 235.749C140.256 234.128 140.539 232.722 141.105 231.53C141.682 230.339 142.492 229.416 143.537 228.762C144.592 228.098 145.842 227.766 147.287 227.766C148.498 227.766 149.494 227.971 150.275 228.381C151.066 228.791 151.687 229.338 152.136 230.021C152.585 230.705 152.902 231.462 153.088 232.292C153.273 233.112 153.366 233.933 153.366 234.753C153.366 234.88 153.366 235.07 153.366 235.324C153.366 235.568 153.361 235.759 153.352 235.896ZM143.083 233.845H150.729C150.729 232.585 150.383 231.623 149.689 230.959C149.006 230.295 148.132 229.963 147.067 229.963C146.003 229.963 145.124 230.28 144.431 230.915C143.747 231.54 143.298 232.517 143.083 233.845ZM177.185 243H165.539V235.236C165.539 233.811 165.524 232.453 165.495 231.164C165.476 229.865 165.417 228.83 165.319 228.059H168.249V240.876H174.694V228.059H177.624C177.526 228.83 177.463 229.865 177.434 231.164C177.414 232.453 177.404 233.811 177.404 235.236V240.876H179.748V249.445H177.624C177.624 248.82 177.609 248.122 177.58 247.351C177.561 246.589 177.521 245.822 177.463 245.051C177.404 244.289 177.312 243.605 177.185 243ZM194.982 235.896H184.597C184.646 237.604 185.104 238.874 185.974 239.704C186.853 240.534 187.956 240.949 189.284 240.949C190.231 240.949 191.159 240.842 192.067 240.627C192.985 240.402 193.889 240.021 194.777 239.484L195.07 241.901C194.035 242.438 193.034 242.814 192.067 243.029C191.101 243.254 190.051 243.366 188.918 243.366C187.678 243.366 186.521 243.078 185.446 242.502C184.382 241.926 183.522 241.071 182.868 239.938C182.214 238.806 181.887 237.409 181.887 235.749C181.887 234.128 182.17 232.722 182.736 231.53C183.312 230.339 184.123 229.416 185.168 228.762C186.223 228.098 187.473 227.766 188.918 227.766C190.129 227.766 191.125 227.971 191.906 228.381C192.697 228.791 193.317 229.338 193.767 230.021C194.216 230.705 194.533 231.462 194.719 232.292C194.904 233.112 194.997 233.933 194.997 234.753C194.997 234.88 194.997 235.07 194.997 235.324C194.997 235.568 194.992 235.759 194.982 235.896ZM184.714 233.845H192.36C192.36 232.585 192.014 231.623 191.32 230.959C190.637 230.295 189.763 229.963 188.698 229.963C187.634 229.963 186.755 230.28 186.062 230.915C185.378 231.54 184.929 232.517 184.714 233.845ZM199.113 243V235.236C199.113 233.811 199.099 232.453 199.069 231.164C199.05 229.865 198.991 228.83 198.894 228.059H201.823V233.918H209.147V228.059H211.857V235.822C211.857 237.248 211.867 238.61 211.887 239.909C211.916 241.198 211.979 242.229 212.077 243H209.147V236.042H201.823V243H199.113ZM234.562 236.042C234.562 236.667 234.572 237.429 234.592 238.327C234.621 239.216 234.655 240.085 234.694 240.935C234.743 241.784 234.797 242.473 234.855 243H231.853C231.853 243 231.853 242.736 231.853 242.209C231.853 241.672 231.853 240.998 231.853 240.188C231.853 239.367 231.853 238.518 231.853 237.639C231.853 236.75 231.853 235.949 231.853 235.236C231.853 233.811 231.838 232.453 231.809 231.164C231.789 229.865 231.73 228.83 231.633 228.059H234.562C234.562 228.059 234.562 228.293 234.562 228.762C234.562 229.221 234.562 229.807 234.562 230.52C234.562 231.223 234.562 231.955 234.562 232.717C234.562 233.469 234.562 234.152 234.562 234.768C234.562 235.373 234.562 235.798 234.562 236.042ZM219.475 233.552H222.99C225.08 233.552 226.638 233.967 227.663 234.797C228.698 235.617 229.216 236.667 229.216 237.946C229.216 239.577 228.723 240.852 227.736 241.77C226.76 242.688 225.251 243.146 223.21 243.146C222.526 243.146 221.765 243.142 220.925 243.132C220.095 243.122 219.289 243.103 218.508 243.073C217.736 243.054 217.082 243.029 216.545 243C216.623 242.59 216.677 241.96 216.706 241.11C216.745 240.251 216.765 239.318 216.765 238.312V232.746C216.765 231.74 216.745 230.812 216.706 229.963C216.677 229.104 216.623 228.469 216.545 228.059H219.475V233.552ZM219.475 235.603V241.096C219.973 241.125 220.554 241.145 221.218 241.154C221.882 241.164 222.497 241.169 223.063 241.169C224.167 241.169 225.026 240.91 225.642 240.393C226.267 239.865 226.579 239.123 226.579 238.166C226.579 237.189 226.223 236.521 225.51 236.159C224.807 235.788 223.967 235.603 222.99 235.603H219.475Z" fill="#F2889C"/>
<circle cx="122.961" cy="109.456" r="82.4606" stroke="#F2889C" stroke-width="5"/>
<path d="M123 107.083C119.132 107.083 115.423 108.62 112.688 111.355C109.953 114.09 108.417 117.799 108.417 121.667C108.417 125.534 109.953 129.244 112.688 131.979C115.423 134.713 119.132 136.25 123 136.25C126.868 136.25 130.577 134.713 133.312 131.979C136.047 129.244 137.583 125.534 137.583 121.667C137.583 117.799 136.047 114.09 133.312 111.355C130.577 108.62 126.868 107.083 123 107.083ZM116.75 121.667C116.75 120.009 117.409 118.419 118.581 117.247C119.753 116.075 121.342 115.417 123 115.417C124.658 115.417 126.247 116.075 127.419 117.247C128.592 118.419 129.25 120.009 129.25 121.667C129.25 123.324 128.592 124.914 127.419 126.086C126.247 127.258 124.658 127.917 123 127.917C121.342 127.917 119.753 127.258 118.581 126.086C117.409 124.914 116.75 123.324 116.75 121.667Z" fill="#F2889C"/>
<path d="M146.025 76.3167L132.779 57.7458L84.075 96.6542L81.375 96.625V96.6667H79.25V146.667H166.75V96.6667H162.742L154.767 73.3375L146.025 76.3167ZM153.937 96.6667H112.154L143.275 86.0584L149.617 84.0292L153.937 96.6667ZM137.792 79.125L105.667 90.075L131.108 69.75L137.792 79.125ZM87.5833 130.704V112.621C89.3424 112 90.9402 110.993 92.2596 109.675C93.579 108.356 94.5865 106.759 95.2083 105H150.792C151.413 106.76 152.42 108.358 153.74 109.677C155.059 110.996 156.657 112.004 158.417 112.625V130.708C156.657 131.33 155.059 132.337 153.74 133.656C152.42 134.976 151.413 136.574 150.792 138.333H95.2167C94.5924 136.574 93.5832 134.976 92.2626 133.656C90.942 132.336 89.3433 131.327 87.5833 130.704Z" fill="#F2889C"/>
</g>
<defs>
<clipPath id="clip0_133_10">
<rect width="246" height="300" fill="white"/>
</clipPath>
</defs>
</svg>
