<svg width="50" height="50" viewBox="0 0 50 50" fill="none" xmlns="http://www.w3.org/2000/svg">
<path d="M46.3855 5.05821C45.7921 4.56519 45.0763 4.2421 44.314 4.12325C43.5518 4.0044 42.7716 4.09424 42.0563 4.38321L4.72088 19.4561C3.92266 19.7847 3.24319 20.3481 2.77263 21.0718C2.30208 21.7954 2.06267 22.6451 2.08617 23.5079C2.10968 24.3708 2.39498 25.2061 2.90424 25.9031C3.41349 26.6 4.12262 27.1257 4.93754 27.4103L12.4896 30.0374L16.698 43.9582C16.7557 44.1439 16.8391 44.3206 16.9459 44.4832C16.9625 44.5082 16.9855 44.5249 17.0021 44.552C17.1252 44.7226 17.2734 44.8736 17.4417 44.9999L17.5875 45.104C17.7852 45.2345 18.0036 45.3303 18.2334 45.3874L18.2605 45.3895L18.273 45.3957C18.4121 45.424 18.5539 45.4379 18.6959 45.4374L18.7334 45.4311C18.9467 45.4273 19.1582 45.3908 19.3605 45.3228C19.4063 45.3034 19.4507 45.2825 19.4938 45.2603C19.645 45.1982 19.7883 45.1184 19.9209 45.0228L20.2375 44.754L25.8667 38.5395L34.2625 45.0436C35.0013 45.6197 35.9112 45.9327 36.848 45.9332C37.8297 45.9321 38.7812 45.5934 39.5429 44.974C40.3046 44.3545 40.8301 43.492 41.0313 42.5311L47.8292 9.16238C47.983 8.41166 47.9299 7.63328 47.6756 6.91041C47.4213 6.18753 46.9754 5.54733 46.3855 5.05821ZM19.5209 30.6999C19.2329 30.9883 19.0359 31.3548 18.9542 31.754L18.3084 34.8874L16.675 29.4853L25.1438 25.0749L19.5209 30.6999ZM36.8167 41.7499L26.8938 34.0624C26.4788 33.7415 25.958 33.589 25.4355 33.6354C24.9129 33.6817 24.4271 33.9235 24.075 34.3124L22.2709 36.302L22.9084 33.204L37.6646 18.4478C38.0147 18.0955 38.2275 17.6298 38.2645 17.1345C38.3016 16.6392 38.1604 16.147 37.8666 15.7466C37.5728 15.3462 37.1455 15.0639 36.662 14.9507C36.1784 14.8375 35.6703 14.9007 35.2292 15.129L14.0521 26.154L6.29171 23.3145L43.748 8.33321L36.8167 41.7499Z" fill="#232227"/>
</svg>
