<svg width="50" height="53" viewBox="0 0 50 53" fill="none" xmlns="http://www.w3.org/2000/svg">
<g clip-path="url(#clip0_15_114)">
<path fill-rule="evenodd" clip-rule="evenodd" d="M50.1235 37.478C48.958 35.0246 47.4224 32.7832 45.5756 30.8399C44.957 30.1109 44.3102 29.4086 43.6369 28.7347L43.5555 28.6519C43.3053 28.3984 43.0582 28.1416 42.8143 27.8815C45.3394 24.2105 47.5 20.2798 49.2623 16.1506L49.333 15.9849L49.3823 15.8102C49.6158 14.9972 49.8814 13.4519 48.9388 12.0544C47.962 10.6121 46.4003 10.3523 45.3528 10.3523H40.5393C39.5313 10.3036 38.5344 10.5899 37.6916 11.17C36.8488 11.7502 36.2034 12.5945 35.8479 13.5818C34.812 16.161 33.515 18.6169 31.9791 20.9074V15.0106C31.9791 14.2492 31.9105 12.9726 31.1286 11.8976C30.1946 10.6076 28.8429 10.3523 27.9046 10.3523H20.2655C19.2687 10.3284 18.3012 10.7061 17.5635 11.4073C16.8257 12.1086 16.3742 13.0796 16.3025 14.1193L16.296 14.2201V14.3209C16.296 15.407 16.7073 16.2088 17.0372 16.7127C17.185 16.9389 17.3414 17.1449 17.4421 17.2748L17.4635 17.304C17.5706 17.4428 17.6413 17.5346 17.712 17.6377C17.9005 17.9019 18.1683 18.314 18.2454 19.3756V22.6745C16.7122 19.9898 15.4549 17.1432 14.4944 14.182L14.4773 14.1327L14.4602 14.0857C14.1988 13.3713 13.7811 12.3321 12.9435 11.5393C11.9666 10.6099 10.8099 10.3523 9.75803 10.3523H4.87382C3.80915 10.3523 2.52597 10.6121 1.56841 11.667C0.627984 12.7061 0.520874 13.9513 0.520874 14.6098V14.9099L0.580856 15.201C1.93101 21.7655 4.7181 27.9135 8.72335 33.1624C10.5535 36.1799 13.0382 38.7039 15.976 40.5296C18.9137 42.3554 22.2218 43.4314 25.6317 43.6704L25.7196 43.6772H25.8095C27.3648 43.6772 28.9864 43.5361 30.2053 42.6873C31.8484 41.5406 31.9791 39.7825 31.9791 38.9046V36.356C32.4011 36.7143 32.9238 37.1936 33.5643 37.8386C34.3398 38.6493 34.9567 39.3525 35.4858 39.9662L35.7686 40.2932C36.1799 40.7724 36.5848 41.245 36.9532 41.6324C37.416 42.1184 37.9879 42.6537 38.7034 43.0501C39.481 43.4778 40.2972 43.6727 41.1627 43.6727H46.049C47.0794 43.6727 48.5554 43.4174 49.5944 42.1587C50.7254 40.7881 50.6398 39.1062 50.2841 37.8991L50.2199 37.6818L50.1235 37.478ZM37.8701 37.7154C37.2063 36.9394 36.5227 36.1822 35.82 35.4445L35.8136 35.4378C32.9066 32.5084 31.5506 32 30.5909 32C30.0789 32 29.5155 32.0583 29.1492 32.5375C28.9862 32.7673 28.8783 33.0345 28.8343 33.3169C28.7832 33.6456 28.7603 33.9783 28.7658 34.3113V38.9046C28.7658 39.4757 28.6758 39.7153 28.423 39.89C28.0867 40.1252 27.369 40.3156 25.8288 40.3156C22.903 40.1074 20.0662 39.1763 17.5517 37.5987C15.0372 36.0211 12.9168 33.8421 11.3647 31.2408L11.3475 31.2117L11.3261 31.1848C7.5948 26.3333 4.99549 20.64 3.73417 14.556C3.74274 14.2649 3.80272 14.0879 3.90126 13.9804C4.00195 13.8685 4.2483 13.7117 4.87382 13.7117H9.75803C10.3 13.7117 10.5828 13.8371 10.7863 14.0275C11.0134 14.2469 11.2147 14.6165 11.4547 15.2749C12.6543 18.9612 14.2738 22.4102 15.8097 24.9454C16.5767 26.2107 17.3307 27.2656 18.0119 28.0113C18.3525 28.3831 18.6846 28.6922 19.0038 28.9117C19.3101 29.1222 19.6593 29.2901 20.0192 29.2901C20.2077 29.2901 20.4283 29.2677 20.6404 29.1714C20.8697 29.0661 21.0584 28.8831 21.176 28.6519C21.3966 28.2308 21.4587 27.6105 21.4587 26.7975V19.2434C21.3452 17.4115 20.8161 16.379 20.3019 15.6467C20.1976 15.5003 20.0905 15.3562 19.9806 15.2144L19.9528 15.1786C19.8618 15.0623 19.7747 14.9427 19.6914 14.8203C19.5871 14.6826 19.5238 14.516 19.5093 14.341C19.5261 14.163 19.6074 13.9985 19.7364 13.8811C19.8654 13.7637 20.0325 13.7023 20.2034 13.7094H27.9046C28.3459 13.7094 28.4937 13.8214 28.5687 13.9267C28.6758 14.0723 28.7658 14.3746 28.7658 15.0106V25.1514C28.7658 26.3563 29.297 27.1715 30.0682 27.1715C30.9551 27.1715 31.5956 26.6094 32.7138 25.4403L32.7331 25.4179L32.7503 25.3978C35.259 22.2005 37.3085 18.6379 38.8341 14.8225L38.8427 14.7956C38.9567 14.4581 39.1736 14.1691 39.4599 13.9729C39.7463 13.7766 40.0864 13.6841 40.4279 13.7094H45.3549C46.0233 13.7094 46.2418 13.8886 46.3147 13.9939C46.3896 14.1059 46.4432 14.3455 46.3147 14.8158C44.5553 18.9286 42.38 22.8327 39.8259 26.4616L39.8088 26.4884C39.5624 26.8848 39.2904 27.3238 39.2518 27.8255C39.209 28.3674 39.4318 28.8579 39.8238 29.3864C40.1087 29.8254 40.6978 30.4278 41.2955 31.0393L41.3512 31.0975C41.9767 31.738 42.6558 32.4323 43.1999 33.1041L43.2149 33.1198L43.2299 33.1377C44.8522 34.8299 46.2014 36.7858 47.2251 38.9293C47.3879 39.5116 47.2894 39.8117 47.1608 39.9662C47.013 40.1453 46.681 40.3133 46.0512 40.3133H41.1627C40.8294 40.3228 40.4995 40.2418 40.2051 40.0782C39.8446 39.8574 39.517 39.5828 39.2325 39.263C38.9262 38.9427 38.5942 38.5553 38.1872 38.0827L37.8701 37.7154Z" fill="#BF7582"/>
</g>
<defs>
<clipPath id="clip0_15_114">
<rect width="50" height="52.2727" fill="white"/>
</clipPath>
</defs>
</svg>
