<svg width="50" height="53" viewBox="0 0 50 53" fill="none" xmlns="http://www.w3.org/2000/svg">
<g clip-path="url(#clip0_44_29)">
<path fill-rule="evenodd" clip-rule="evenodd" d="M50.1235 37.4782C48.958 35.0247 47.4224 32.7834 45.5756 30.8401C44.957 30.1111 44.3102 29.4088 43.6369 28.7349L43.5555 28.652C43.3053 28.3986 43.0582 28.1417 42.8143 27.8816C45.3394 24.2106 47.5 20.28 49.2623 16.1507L49.333 15.985L49.3823 15.8103C49.6158 14.9974 49.8814 13.4521 48.9388 12.0546C47.962 10.6123 46.4003 10.3525 45.3528 10.3525H40.5393C39.5313 10.3038 38.5344 10.59 37.6916 11.1702C36.8488 11.7504 36.2034 12.5946 35.8479 13.582C34.812 16.1612 33.515 18.6171 31.9791 20.9076V15.0108C31.9791 14.2494 31.9105 12.9728 31.1286 11.8978C30.1946 10.6078 28.8429 10.3525 27.9046 10.3525H20.2655C19.2687 10.3285 18.3012 10.7063 17.5635 11.4075C16.8257 12.1087 16.3742 13.0798 16.3025 14.1195L16.296 14.2202V14.321C16.296 15.4072 16.7073 16.209 17.0372 16.7129C17.185 16.9391 17.3414 17.1451 17.4421 17.275L17.4635 17.3041C17.5706 17.443 17.6413 17.5348 17.712 17.6378C17.9005 17.9021 18.1683 18.3142 18.2454 19.3757V22.6746C16.7122 19.99 15.4549 17.1433 14.4944 14.1822L14.4773 14.1329L14.4602 14.0859C14.1988 13.3714 13.7811 12.3323 12.9435 11.5395C11.9666 10.61 10.8099 10.3525 9.75803 10.3525H4.87382C3.80915 10.3525 2.52597 10.6123 1.56841 11.6671C0.627984 12.7063 0.520874 13.9515 0.520874 14.6099V14.91L0.580856 15.2012C1.93101 21.7656 4.7181 27.9136 8.72335 33.1625C10.5535 36.18 13.0382 38.7041 15.976 40.5298C18.9137 42.3555 22.2218 43.4316 25.6317 43.6706L25.7196 43.6773H25.8095C27.3648 43.6773 28.9864 43.5362 30.2053 42.6874C31.8484 41.5408 31.9791 39.7827 31.9791 38.9048V36.3562C32.4011 36.7145 32.9238 37.1938 33.5643 37.8388C34.3398 38.6495 34.9567 39.3527 35.4858 39.9664L35.7686 40.2933C36.1799 40.7726 36.5848 41.2451 36.9532 41.6326C37.416 42.1186 37.9879 42.6538 38.7034 43.0502C39.481 43.478 40.2972 43.6728 41.1627 43.6728H46.049C47.0794 43.6728 48.5554 43.4175 49.5944 42.1589C50.7254 40.7883 50.6398 39.1064 50.2841 37.8992L50.2199 37.682L50.1235 37.4782ZM37.8701 37.7156C37.2063 36.9396 36.5227 36.1823 35.82 35.4447L35.8136 35.4379C32.9066 32.5086 31.5506 32.0002 30.5909 32.0002C30.0789 32.0002 29.5155 32.0584 29.1492 32.5377C28.9862 32.7675 28.8783 33.0347 28.8343 33.3171C28.7832 33.6457 28.7603 33.9785 28.7658 34.3114V38.9048C28.7658 39.4759 28.6758 39.7155 28.423 39.8902C28.0867 40.1254 27.369 40.3157 25.8288 40.3157C22.903 40.1076 20.0662 39.1765 17.5517 37.5989C15.0372 36.0213 12.9168 33.8422 11.3647 31.241L11.3475 31.2119L11.3261 31.185C7.5948 26.3335 4.99549 20.6402 3.73417 14.5562C3.74274 14.265 3.80272 14.0881 3.90126 13.9806C4.00195 13.8686 4.2483 13.7119 4.87382 13.7119H9.75803C10.3 13.7119 10.5828 13.8373 10.7863 14.0276C11.0134 14.2471 11.2147 14.6166 11.4547 15.2751C12.6543 18.9614 14.2738 22.4103 15.8097 24.9455C16.5767 26.2109 17.3307 27.2657 18.0119 28.0115C18.3525 28.3833 18.6846 28.6923 19.0038 28.9118C19.3101 29.1223 19.6593 29.2903 20.0192 29.2903C20.2077 29.2903 20.4283 29.2679 20.6404 29.1716C20.8697 29.0663 21.0584 28.8832 21.176 28.652C21.3966 28.231 21.4587 27.6106 21.4587 26.7977V19.2436C21.3452 17.4116 20.8161 16.3792 20.3019 15.6468C20.1976 15.5005 20.0905 15.3564 19.9806 15.2146L19.9528 15.1788C19.8618 15.0624 19.7747 14.9429 19.6914 14.8204C19.5871 14.6828 19.5238 14.5161 19.5093 14.3412C19.5261 14.1632 19.6074 13.9987 19.7364 13.8813C19.8654 13.7639 20.0325 13.7025 20.2034 13.7096H27.9046C28.3459 13.7096 28.4937 13.8216 28.5687 13.9269C28.6758 14.0724 28.7658 14.3748 28.7658 15.0108V25.1516C28.7658 26.3565 29.297 27.1717 30.0682 27.1717C30.9551 27.1717 31.5956 26.6095 32.7138 25.4405L32.7331 25.4181L32.7503 25.3979C35.259 22.2006 37.3085 18.6381 38.8341 14.8227L38.8427 14.7958C38.9567 14.4583 39.1736 14.1692 39.4599 13.973C39.7463 13.7768 40.0864 13.6843 40.4279 13.7096H45.3549C46.0233 13.7096 46.2418 13.8888 46.3147 13.994C46.3896 14.106 46.4432 14.3457 46.3147 14.816C44.5553 18.9287 42.38 22.8329 39.8259 26.4617L39.8088 26.4886C39.5624 26.885 39.2904 27.324 39.2518 27.8256C39.209 28.3676 39.4318 28.8581 39.8238 29.3866C40.1087 29.8256 40.6978 30.428 41.2955 31.0394L41.3512 31.0976C41.9767 31.7382 42.6558 32.4324 43.1999 33.1043L43.2149 33.12L43.2299 33.1379C44.8522 34.8301 46.2014 36.7859 47.2251 38.9294C47.3879 39.5117 47.2894 39.8118 47.1608 39.9664C47.013 40.1455 46.681 40.3135 46.0512 40.3135H41.1627C40.8294 40.323 40.4995 40.2419 40.2051 40.0783C39.8446 39.8576 39.517 39.583 39.2325 39.2631C38.9262 38.9429 38.5942 38.5554 38.1872 38.0829L37.8701 37.7156Z" fill="#232227"/>
</g>
<defs>
<clipPath id="clip0_44_29">
<rect width="50" height="52.2727" fill="white"/>
</clipPath>
</defs>
</svg>
